<?xml version="1.0" encoding="UTF-8"?>
<svg width="104px" height="84px" viewBox="0 0 104 84" version="1.1" xmlns="http://www.w3.org/2000/svg" xmlns:xlink="http://www.w3.org/1999/xlink">
    <!-- Generator: Sketch 47.1 (45422) - http://www.bohemiancoding.com/sketch -->
    <title>Artboard</title>
    <desc>Created with Sketch.</desc>
    <defs></defs>
    <g id="Page-1" stroke="none" stroke-width="1" fill="none" fill-rule="evenodd">
        <g id="Artboard" fill-rule="nonzero" fill="#FFFFFF">
            <g id="arrow" transform="translate(52.000000, 42.000000) scale(-1, 1) translate(-52.000000, -42.000000) ">
                <path d="M70.1,3.4 C66.7,-0.5 60.8,-0.9 56.8,2.5 C52.9,5.9 52.5,11.8 55.9,15.8 L70.6,32.7 L10,32.7 C4.8,32.7 0.6,36.9 0.6,42.1 C0.6,47.3 4.8,51.5 10,51.5 L70.5,51.5 L55.8,68.4 C52.4,72.3 52.8,78.3 56.7,81.7 C58.5,83.2 60.7,84 62.9,84 C65.5,84 68.1,82.9 70,80.8 L103.5,42.2 L70.1,3.4 Z" id="Shape"></path>
            </g>
        </g>
    </g>
</svg>