<?xml version="1.0" encoding="utf-8"?>
<!-- Generator: Adobe Illustrator 21.0.2, SVG Export Plug-In . SVG Version: 6.00 Build 0)  -->
<svg version="1.1" id="Layer_1" xmlns="http://www.w3.org/2000/svg" xmlns:xlink="http://www.w3.org/1999/xlink" x="0px" y="0px"
	 viewBox="0 0 224.1 224.1" style="enable-background:new 0 0 224.1 224.1;" xml:space="preserve">
<style type="text/css">
	.st0{fill:#FFFFFF;}
</style>
<g>
	<g>
		<path class="st0" d="M153.9,80.7H70.2c-5.2,0-9.4-4.2-9.4-9.4s4.2-9.4,9.4-9.4h83.7c5.2,0,9.4,4.2,9.4,9.4S159.1,80.7,153.9,80.7z
			"/>
	</g>
	<g>
		<path class="st0" d="M153.9,121.5H70.2c-5.2,0-9.4-4.2-9.4-9.4s4.2-9.4,9.4-9.4h83.7c5.2,0,9.4,4.2,9.4,9.4
			S159.1,121.5,153.9,121.5z"/>
	</g>
	<g>
		<path class="st0" d="M153.9,162.2H70.2c-5.2,0-9.4-4.2-9.4-9.4c0-5.2,4.2-9.4,9.4-9.4h83.7c5.2,0,9.4,4.2,9.4,9.4
			C163.3,158,159.1,162.2,153.9,162.2z"/>
	</g>
</g>
</svg>
